<?xml version="1.0" standalone="no"?>
<!DOCTYPE svg PUBLIC "-//W3C//DTD SVG 20010904//EN"
 "http://www.w3.org/TR/2001/REC-SVG-20010904/DTD/svg10.dtd">
<svg version="1.0" xmlns="http://www.w3.org/2000/svg"
 width="133.000000pt" height="150.000000pt" viewBox="0 0 133.000000 150.000000"
 preserveAspectRatio="xMidYMid meet">
<metadata>
Created by potrace 1.16, written by Peter Selinger 2001-2019
</metadata>
<g transform="translate(0.000000,150.000000) scale(0.100000,-0.100000)"
fill="#000000" stroke="none">
<path d="M600 1368 c-22 -24 -26 -74 -7 -99 29 -38 112 -26 123 17 18 71 -69
132 -116 82z"/>
<path d="M257 921 c-31 -37 -41 -99 -27 -170 9 -49 32 -92 49 -89 23 3 71 -17
72 -31 0 -9 2 -26 3 -38 2 -13 -2 -23 -8 -23 -6 0 -5 -5 2 -12 8 -8 15 -9 22
-2 11 11 87 -21 120 -51 9 -8 25 -15 36 -15 11 0 29 -7 40 -15 10 -8 24 -14
29 -15 6 0 4 4 -4 9 -7 5 -12 14 -9 21 5 15 58 -26 58 -46 0 -17 46 -19 64 -2
14 14 10 48 -7 48 -5 0 -15 -7 -22 -17 -7 -9 -17 -13 -23 -9 -17 11 -15 26 4
26 9 0 24 9 34 20 9 11 28 21 41 22 13 2 30 9 37 16 7 6 21 12 31 12 19 0 51
30 51 48 0 6 -11 19 -25 30 l-25 20 22 14 c21 14 19 15 -30 15 -28 1 -50 -3
-47 -7 3 -4 -2 -11 -11 -14 -25 -9 -64 -7 -64 4 0 6 5 10 10 10 18 0 10 32
-14 55 -30 28 -90 39 -107 19 -6 -8 -17 -14 -23 -14 -20 0 -34 -20 -29 -41 3
-10 11 -19 19 -19 7 0 15 -4 19 -9 3 -6 -3 -9 -12 -9 -10 1 -30 -2 -45 -5 -24
-6 -28 -4 -28 12 0 11 5 23 11 27 8 5 8 9 -1 14 -9 6 -6 10 9 15 11 3 21 13
21 21 0 23 -30 75 -39 69 -5 -2 -11 5 -14 16 -4 16 -12 20 -33 17 -26 -3 -28
0 -29 35 -3 70 -81 93 -128 38z"/>
<path d="M100 409 c-36 -17 -48 -46 -18 -41 9 1 26 -5 37 -14 18 -16 18 -19 4
-29 -10 -8 -14 -19 -10 -30 6 -14 10 -15 23 -4 13 11 15 11 13 -2 -6 -31 13
-55 63 -77 38 -17 54 -19 64 -11 10 9 14 9 14 0 0 -6 7 -11 15 -11 8 0 14 -3
14 -7 -5 -29 3 -35 36 -31 22 2 36 -1 39 -9 3 -7 21 -13 41 -13 28 0 35 4 33
16 -2 10 2 19 7 21 6 2 11 -9 10 -24 0 -18 6 -29 17 -31 14 -3 16 1 11 15 -6
15 -3 15 20 -4 21 -16 37 -20 69 -16 52 6 62 11 49 27 -8 9 -6 18 4 32 22 30
18 34 -30 34 -25 0 -45 -5 -45 -10 0 -6 -10 -4 -23 4 -12 9 -49 18 -82 22 -33
3 -71 13 -84 21 -18 12 -29 13 -47 4 -22 -10 -25 -8 -23 15 0 9 -94 53 -103
48 -5 -3 -8 2 -8 11 0 8 -9 23 -20 32 -11 10 -20 25 -20 34 0 9 -8 23 -17 31
-16 13 -22 13 -53 -3z"/>
<path d="M1085 328 c-20 -23 -25 -39 -15 -48 21 -20 43 -52 30 -45 -8 5 -23
19 -33 32 -30 38 -47 30 -47 -22 0 -53 -15 -60 -24 -10 -8 41 -23 45 -36 9 -9
-22 -13 -24 -25 -14 -12 10 -18 10 -30 0 -8 -7 -15 -9 -15 -5 0 4 -7 2 -15 -5
-8 -7 -12 -16 -10 -21 3 -4 -7 -2 -21 6 -15 8 -31 12 -35 9 -5 -2 -31 -6 -59
-8 -51 -3 -84 -20 -65 -34 6 -4 10 -14 10 -22 -2 -20 14 -50 25 -50 6 0 10 8
10 18 0 9 12 25 25 35 28 20 24 23 42 -33 4 -13 6 -13 16 1 9 11 19 14 33 8
16 -5 28 -2 42 11 11 11 22 15 24 9 2 -6 11 -7 21 -3 16 6 17 8 2 31 -9 14
-14 27 -12 30 3 2 11 -5 17 -17 9 -17 14 -19 26 -9 8 7 14 7 14 1 0 -24 31
-19 59 8 16 17 39 30 51 30 27 0 36 26 16 49 -17 19 -21 41 -7 41 5 0 16 -11
25 -25 9 -14 22 -23 28 -19 7 4 5 10 -6 16 -24 14 -19 27 9 23 14 -1 28 2 31
6 3 5 -4 9 -15 9 -12 0 -21 7 -21 15 0 23 -43 18 -65 -7z"/>
</g>
</svg>
