<?xml version="1.0" encoding="UTF-8"?>
<svg xmlns="http://www.w3.org/2000/svg" xmlns:xlink="http://www.w3.org/1999/xlink" width="250pt" height="330pt" viewBox="0 0 250 330" version="1.1">
<g id="surface1">
<path style=" stroke:none;fill-rule:nonzero;fill:rgb(0%,0%,0%);fill-opacity:1;" d="M 115 31 L 109 31 C 74 36 65 81 94 99 C 105 106 106 109 103 116 C 99 123 93 160 92 175 C 92 182 91 191 89 196 C 87 202 87 206 89 211 C 93 221 92 234 88 234 C 85 234 85 236 87 243 C 90 250 85 270 76 289 C 71 302 71 303 79 305 C 87 306 116 305 123 302 C 128 300 129 299 127 296 C 124 291 113 286 107 286 C 102 286 101 286 103 281 C 104 273 104 273 111 278 C 114 280 118 282 119 282 C 122 282 122 273 118 265 C 117 261 115 257 115 257 C 115 257 118 257 122 258 C 128 260 137 259 139 257 C 140 257 139 250 137 242 C 136 234 135 225 134 222 C 134 219 133 215 131 213 C 129 211 130 208 134 197 C 138 189 139 180 139 173 C 139 163 138 157 131 130 C 130 125 127 120 125 118 C 120 113 122 105 128 103 C 141 99 153 83 153 68 C 153 48 136 31 115 31 Z M 114 34 C 121 34 128 35 131 37 C 134 39 139 43 142 46 C 158 65 148 97 124 101 C 118 103 118 103 119 110 C 120 114 123 123 126 130 C 138 157 140 174 133 193 C 126 210 123 210 114 189 L 107 173 L 113 157 C 121 134 120 135 118 137 C 116 138 113 147 110 156 L 104 173 L 111 190 C 118 205 119 207 116 210 C 112 213 114 213 120 210 C 123 208 125 209 128 211 C 132 215 133 219 129 217 C 126 215 127 218 131 223 C 133 227 133 229 131 231 C 129 234 128 234 125 231 C 123 229 122 229 121 230 C 121 231 117 233 114 233 C 107 235 107 235 107 226 C 107 222 104 208 100 197 L 93 175 L 98 150 C 100 136 103 122 105 119 C 109 107 108 104 97 98 C 90 94 86 90 83 84 C 75 67 82 45 97 37 C 101 35 108 34 114 34 Z M 94 188 C 96 188 103 216 105 230 C 108 245 107 259 101 279 L 98 288 L 107 289 C 117 290 127 296 124 299 C 121 301 81 303 76 301 C 74 300 75 297 78 290 C 90 268 97 224 92 211 C 90 206 90 202 91 196 C 93 192 94 188 94 188 Z M 124 222 C 123 222 120 224 116 227 C 113 230 111 232 112 232 C 113 232 115 231 116 230 C 117 229 120 227 122 225 C 125 224 126 222 124 222 Z M 126 235 L 127 235 C 133 235 133 236 135 245 L 137 255 C 137 257 124 256 118 254 C 115 253 112 253 112 253 C 111 254 113 258 114 263 C 116 268 117 273 117 275 C 116 278 116 278 111 274 C 106 271 106 269 108 263 C 109 259 109 252 109 248 C 109 242 110 242 115 243 C 121 243 121 243 121 239 C 121 236 122 235 126 235 Z M 114 236 C 116 236 118 237 118 238 C 119 239 118 240 117 240 C 115 240 113 239 112 238 C 112 237 113 236 114 236 Z M 114 236 "/>
</g>
</svg>
